{"title":"San Andreas {2015} CAM XVID AC3 MURD3R","uid":11977654,"size":1678500224,"categoryP":"video","categoryS":"movies","magnet":"?xt=urn:btih:5b2b8137fcc2164704c9b28af9a161b926265130&amp;dn=San+Andreas+%7B2015%7D+CAM+XVID+AC3+MURD3R&amp;tr=udp%3A%2F%2Ftracker.openbittorrent.com%3A80&amp;tr=udp%3A%2F%2Fopen.demonii.com%3A1337&amp;tr=udp%3A%2F%2Ftracker.coppersurfer.tk%3A6969&amp;tr=udp%3A%2F%2Fexodus.desync.com%3A6969","seeders":6,"leechers":1,"uploader":"makintos13","files":14,"time":1433090033,"description":"Screens:\n   &lt;a href=&quot;\nhttp://imgmak.com/57&quot; rel=&quot;nofollow&quot; target=&quot;_NEW&quot;&gt;\nhttp://imgmak.com/57&lt;/a&gt;\n   &lt;a href=&quot;\nhttp://imgmak.com/5k&quot; rel=&quot;nofollow&quot; target=&quot;_NEW&quot;&gt;\nhttp://imgmak.com/5k&lt;/a&gt;\n   &lt;a href=&quot;\nhttp://imgmak.com/5m&quot; rel=&quot;nofollow&quot; target=&quot;_NEW&quot;&gt;\nhttp://imgmak.com/5m&lt;/a&gt;\n   &lt;a href=&quot;\nhttp://imgmak.com/5u&quot; rel=&quot;nofollow&quot; target=&quot;_NEW&quot;&gt;\nhttp://imgmak.com/5u&lt;/a&gt;\n\nSan Andreas {2015} CAM XVID AC3 MURD3R\n\nAudio                       : CM8..TY\nFormat                      : AVI\nFormat/Info                 : Audio Video Interleave\nFile size                   : 1.56 GiB\nDuration                    : 1h 46mn\nOverall bit rate            : 2 097 Kbps\nWriting library             : VirtualDub build 35491/release\n\nVideo\nID                          : 0\nFormat                      : MPEG-4 Visual\nFormat profile              : Advanced Simple@L5\nFormat settings, BVOP       : 2\nFormat settings, QPel       : No\nFormat settings, GMC        : No warppoints\nFormat settings, Matrix     : Default (MPEG)\nMuxing mode                 : Packed bitstream\nCodec ID                    : XVID\nCodec ID/Hint               : XviD\nDuration                    : 1h 46mn\nBit rate                    : 1 958 Kbps\nWidth                       : 720 pixels\nHeight                      : 304 pixels\nDisplay aspect ratio        : 2.35:1\nFrame rate                  : 29.970 fps\nColor space                 : YUV\nChroma subsampling          : 4:2:0\nBit depth                   : 8 bits\nScan type                   : Progressive\nCompression mode            : Lossy\nBits/(Pixel*Frame)          : 0.298\nStream size                 : 1.46 GiB (93%)\nWriting library             : XviD 73\n\nAudio\nID                          : 1\nFormat                      : AC-3\nFormat/Info                 : Audio Coding 3\nMode extension              : CM (complete main)\nFormat settings, Endianness : Big\nCodec ID                    : 2000\nDuration                    : 1h 46mn\nBit rate mode               : Constant\nBit rate                    : 128 Kbps\nChannel(s)                  : 2 channels\nChannel positions           : Front: L R\nSampling rate               : 48.0 KHz\nBit depth                   : 16 bits\nCompression mode            : Lossy\nStream size                 : 97.4 MiB (6%)\nAlignment                   : Split accross interleaves\nInterleave, duration        : 33 ms (1.00 video frame)\nInterleave, preload duratio : 500 ms","torrent":{"xt":"urn:btih:5b2b8137fcc2164704c9b28af9a161b926265130","amp;dn":"San+Andreas+%7B2015%7D+CAM+XVID+AC3+MURD3R","amp;tr":["udp%3A%2F%2Ftracker.openbittorrent.com%3A80","udp%3A%2F%2Fopen.demonii.com%3A1337","udp%3A%2F%2Ftracker.coppersurfer.tk%3A6969","udp%3A%2F%2Fexodus.desync.com%3A6969"],"infoHash":"5b2b8137fcc2164704c9b28af9a161b926265130","infoHashBuffer":{"type":"Buffer","data":[91,43,129,55,252,194,22,71,4,201,178,138,249,161,97,185,38,38,81,48]},"announce":[],"urlList":[]}}